# xmcd
#
# Track frame offsets: 
#        150
#        13118
#        27283
#        41387
#        61324
#        72915
#        99276
#        112603
#        132548
#        147347
#        166339
#        180279
#
# Disc length: 2687 seconds
#
# Revision: 0
# Processed by: cddbd v1.5.2PL0 Copyright (c) Steve Scherf et al.
# Submitted via: ExactAudioCopy v0.95b4
#
DISCID=950a7d0c
DTITLE=Almost Blue - One Night At The Barn
DYEAR=1996
DGENRE=Blues
TTITLE0=Get Ready
TTITLE1=Mister Soul
TTITLE2=The Letter
TTITLE3=The Spell
TTITLE4=I'm Losing You
TTITLE5=I Just Want To Make Love To You
TTITLE6=Treat Her Like A Lady
TTITLE7=Hey, Hey, My, My
TTITLE8=Beachfront
TTITLE9=Mustang Sally
TTITLE10=Wooly Bully
TTITLE11=Gimme Shelter
EXTD=
EXTT0=
EXTT1=
EXTT2=
EXTT3=
EXTT4=
EXTT5=
EXTT6=
EXTT7=
EXTT8=
EXTT9=
EXTT10=
EXTT11=
PLAYORDER=
